<?xml version="1.0" encoding="UTF-8" standalone="no"?>
<svg
   viewBox="0 0 200 130.36"
   version="1.1"
   id="svg7"
   sodipodi:docname="pacman-151558 (1).svg"
   inkscape:version="1.3.2 (091e20e, 2023-11-25, custom)"
   xmlns:inkscape="http://www.inkscape.org/namespaces/inkscape"
   xmlns:sodipodi="http://sodipodi.sourceforge.net/DTD/sodipodi-0.dtd"
   xmlns:xlink="http://www.w3.org/1999/xlink"
   xmlns="http://www.w3.org/2000/svg"
   xmlns:svg="http://www.w3.org/2000/svg">
  <sodipodi:namedview
     id="namedview7"
     pagecolor="#ffffff"
     bordercolor="#111111"
     borderopacity="1"
     inkscape:showpageshadow="0"
     inkscape:pageopacity="0"
     inkscape:pagecheckerboard="1"
     inkscape:deskcolor="#d1d1d1"
     inkscape:zoom="0.99"
     inkscape:cx="183.33333"
     inkscape:cy="80.30303"
     inkscape:window-width="1440"
     inkscape:window-height="829"
     inkscape:window-x="-8"
     inkscape:window-y="-8"
     inkscape:window-maximized="1"
     inkscape:current-layer="g7" />
  <defs
     id="defs3">
    <linearGradient
       id="linearGradient8"
       inkscape:collect="always">
      <stop
         style="stop-color:#ffe062;stop-opacity:1;"
         offset="0"
         id="stop8" />
      <stop
         style="stop-color:#ffe03a;stop-opacity:1;"
         offset="0.48791614"
         id="stop10" />
      <stop
         style="stop-color:#e6b800;stop-opacity:1"
         offset="1"
         id="stop9" />
    </linearGradient>
    <linearGradient
       id="b">
      <stop
         stop-color="#ffe680"
         offset="0"
         id="stop1" />
      <stop
         stop-color="#fc0"
         offset=".51835"
         id="stop2" />
      <stop
         stop-color="#806600"
         offset="1"
         id="stop3" />
    </linearGradient>
    <radialGradient
       id="c"
       cx="170"
       cy="372.36"
       r="250"
       gradientUnits="userSpaceOnUse"
       xlink:href="#b"
       gradientTransform="translate(-16.854677,353.9483)" />
    <radialGradient
       id="a"
       cx="280"
       cy="412.36"
       r="40"
       gradientUnits="userSpaceOnUse"
       xlink:href="#b" />
    <radialGradient
       inkscape:collect="always"
       xlink:href="#linearGradient8"
       id="radialGradient9"
       cx="-182.89783"
       cy="368.10651"
       fx="-182.89783"
       fy="368.10651"
       r="147.11421"
       gradientUnits="userSpaceOnUse"
       gradientTransform="matrix(0.91046549,0.51069951,-0.47104026,0.83976469,51.098586,-49.688054)" />
    <radialGradient
       inkscape:collect="always"
       xlink:href="#linearGradient8"
       id="radialGradient10"
       gradientUnits="userSpaceOnUse"
       gradientTransform="matrix(0.91046549,0.51069951,-0.47104026,0.83976469,624.15773,-173.69035)"
       cx="-182.89783"
       cy="368.10651"
       fx="-182.89783"
       fy="368.10651"
       r="147.11421" />
  </defs>
  <g
     transform="matrix(.41951 0 0 .41951 1.9695 -111.57)"
     fill-rule="evenodd"
     id="g7">
    <path
       d="m 173.14532,626.3283 c -82.842997,0 -149.999997,67.157 -149.999997,150 0,82.843 67.157,150 149.999997,150 53.64,0 100.7,-28.161 127.22,-70.5 l -127.22,-79.5 127.22,-79.5 c -26.514,-42.346 -73.573,-70.5 -127.22,-70.5 z"
       fill="url(#c)"
       id="path3"
       style="fill:url(#c)" />
    <path
       d="m 221.94141,690.28876 c 0,11.046 -8.9543,20 -20,20 -11.0457,0 -20,-8.9543 -20,-20 0,-11.0457 8.9543,-20 20,-20 11.0457,0 20,8.9543 20,20 z"
       id="path7" />
    <g
       id="g11"
       transform="matrix(0.97219706,0,0,0.97219706,31.672328,-135.86583)"
       inkscape:export-filename="packman2.png"
       inkscape:export-xdpi="96"
       inkscape:export-ydpi="96">
      <circle
         style="fill:url(#radialGradient9);fill-opacity:1;stroke:none;stroke-width:5.49597;stroke-linecap:round;paint-order:stroke markers fill"
         id="path8"
         cx="-272.56381"
         cy="196.72856"
         r="147.11421" />
      <path
         d="m -172.93968,158.16242 c 0,11.046 -8.95429,20 -19.99999,20 -11.0457,0 -20,-8.9543 -20,-20 0,-11.0457 8.9543,-20 20,-20 11.0457,0 19.99999,8.9543 19.99999,20 z"
         id="path10" />
    </g>
    <g
       id="g12"
       transform="matrix(1.0501307,0,0,0.97218267,-489.2514,443.3758)"
       inkscape:export-filename="packman1.png"
       inkscape:export-xdpi="96"
       inkscape:export-ydpi="96">
      <path
         id="circle10"
         style="fill:url(#radialGradient10);fill-opacity:1;stroke:none;stroke-width:5.49597;stroke-linecap:round;paint-order:stroke markers fill"
         d="M 300.49719,-74.390128 A 147.11421,147.11421 0 0 0 153.38079,72.726262 147.11421,147.11421 0 0 0 300.49719,219.84265 147.11421,147.11421 0 0 0 425.77355,149.48061 L 363.92684,118.74349 269.96491,72.046522 364.2248,25.787202 425.7363,-4.4005478 A 147.11421,147.11421 0 0 0 300.49719,-74.390128 Z" />
      <path
         d="m 355.57495,-1.9570478 c 0,11.046 -8.95429,19.9999998 -19.99999,19.9999998 -11.0457,0 -20,-8.9542998 -20,-19.9999998 0,-11.0457002 8.9543,-20.0000002 20,-20.0000002 11.0457,0 19.99999,8.9543 19.99999,20.0000002 z"
         id="path11" />
    </g>
    <g
       transform="matrix(9.6590051,0,0,9.6590051,-2309.4538,-4573.3409)"
       id="g8"
       inkscape:export-filename="ghost1.png"
       inkscape:export-xdpi="96"
       inkscape:export-ydpi="96">
      <path
         transform="translate(10.357,-0.21429)"
         d="m 262.95,457.76 c 0,1.7065 0.27875,14.761 -0.34728,16.241 -0.62603,1.48 -3.0944,-3.6615 -4.2135,-2.5424 -1.1191,1.1191 -1.5141,2.1589 -2.9934,2.7849 -1.4793,0.626 -3.1054,-2.867 -4.812,-2.867 -1.7066,0 -3.3327,3.493 -4.812,2.867 -1.4793,-0.626 -1.7403,-1.1301 -2.8594,-2.2492 -1.1191,-1.1191 -3.8107,3.5306 -4.4367,2.0513 -0.626,-1.4793 -0.25799,-14.579 -0.25799,-16.285 0,-6.8261 5.54,-12.366 12.366,-12.366 6.826,0 12.366,5.54 12.366,12.366 z"
         fill="#ff0000"
         stroke="#000000"
         stroke-width="0.66942"
         id="path2" />
      <path
         transform="translate(8.4375,-2.4018)"
         d="m 250.98,458.3 a 3.37055,3.4821517 0 1 1 -6.7411,0 3.37055,3.4821517 0 1 1 6.7411,0 z"
         fill="#ffffff"
         stroke="#000000"
         stroke-width="0.5"
         id="path4" />
      <path
         transform="translate(20.491,-2.1339)"
         d="m 250.98,458.3 a 3.37055,3.4821517 0 1 1 -6.7411,0 3.37055,3.4821517 0 1 1 6.7411,0 z"
         fill="#ffffff"
         stroke="#000000"
         stroke-width="0.5"
         id="path5" />
      <path
         d="m 257.16777,456.25616 a 1.065375,1.0227439 0 1 1 -2.13075,0 1.065375,1.0227439 0 1 1 2.13075,0 z"
         id="path6"
         style="stroke-width:1.9091" />
      <path
         d="m 268.95371,456.47859 a 1.0653733,1.0227423 0 1 1 -2.13074,0 1.0653733,1.0227423 0 1 1 2.13074,0 z"
         id="path7-0"
         style="stroke-width:1.9091" />
    </g>
    <g
       transform="matrix(9.6590051,0,0,9.6590051,-2323.9007,-4142.3426)"
       id="g14"
       inkscape:export-filename="ghost3.png"
       inkscape:export-xdpi="96"
       inkscape:export-ydpi="96">
      <path
         d="m 262.95,457.76 c 0,1.7065 0.27875,14.761 -0.34728,16.241 -0.62603,1.48 -3.0944,-3.6615 -4.2135,-2.5424 -1.1191,1.1191 -1.5141,2.1589 -2.9934,2.7849 -1.4793,0.626 -3.1054,-2.867 -4.812,-2.867 -1.7066,0 -3.3327,3.493 -4.812,2.867 -1.4793,-0.626 -1.7403,-1.1301 -2.8594,-2.2492 -1.1191,-1.1191 -3.8107,3.5306 -4.4367,2.0513 -0.626,-1.4793 -0.25799,-14.579 -0.25799,-16.285 0,-6.8261 5.54,-12.366 12.366,-12.366 6.826,0 12.366,5.54 12.366,12.366 z"
         fill="#ff0000"
         stroke="#000000"
         stroke-width="0.66942"
         id="path1"
         style="fill:#ffccaa"
         transform="translate(10.357,-0.21429)" />
      <path
         transform="translate(8.4375,-2.4018)"
         d="m 250.98,458.3 a 3.37055,3.4821517 0 1 1 -6.7411,0 3.37055,3.4821517 0 1 1 6.7411,0 z"
         fill="#ffffff"
         stroke="#000000"
         stroke-width="0.5"
         id="path9" />
      <path
         transform="translate(20.491,-2.1339)"
         d="m 250.98,458.3 a 3.37055,3.4821517 0 1 1 -6.7411,0 3.37055,3.4821517 0 1 1 6.7411,0 z"
         fill="#ffffff"
         stroke="#000000"
         stroke-width="0.5"
         id="path12" />
      <path
         d="m 257.16777,456.25616 a 1.065375,1.0227439 0 1 1 -2.13075,0 1.065375,1.0227439 0 1 1 2.13075,0 z"
         id="path13"
         style="stroke-width:1.9091" />
      <path
         d="m 268.95371,456.47859 a 1.0653733,1.0227423 0 1 1 -2.13074,0 1.0653733,1.0227423 0 1 1 2.13074,0 z"
         id="path14"
         style="stroke-width:1.9091" />
    </g>
    <g
       transform="matrix(9.6590051,0,0,9.6590051,-1839.9306,-4532.408)"
       id="g19"
       inkscape:export-filename="ghost2.png"
       inkscape:export-xdpi="96"
       inkscape:export-ydpi="96">
      <path
         transform="translate(10.357,-0.21429)"
         d="m 262.95,457.76 c 0,1.7065 0.27875,14.761 -0.34728,16.241 -0.62603,1.48 -3.0944,-3.6615 -4.2135,-2.5424 -1.1191,1.1191 -1.5141,2.1589 -2.9934,2.7849 -1.4793,0.626 -3.1054,-2.867 -4.812,-2.867 -1.7066,0 -3.3327,3.493 -4.812,2.867 -1.4793,-0.626 -1.7403,-1.1301 -2.8594,-2.2492 -1.1191,-1.1191 -3.8107,3.5306 -4.4367,2.0513 -0.626,-1.4793 -0.25799,-14.579 -0.25799,-16.285 0,-6.8261 5.54,-12.366 12.366,-12.366 6.826,0 12.366,5.54 12.366,12.366 z"
         fill="#ff0000"
         stroke="#000000"
         stroke-width="0.66942"
         id="path15"
         style="fill:#00ffff" />
      <path
         transform="translate(8.4375,-2.4018)"
         d="m 250.98,458.3 a 3.37055,3.4821517 0 1 1 -6.7411,0 3.37055,3.4821517 0 1 1 6.7411,0 z"
         fill="#ffffff"
         stroke="#000000"
         stroke-width="0.5"
         id="path16" />
      <path
         transform="translate(20.491,-2.1339)"
         d="m 250.98,458.3 a 3.37055,3.4821517 0 1 1 -6.7411,0 3.37055,3.4821517 0 1 1 6.7411,0 z"
         fill="#ffffff"
         stroke="#000000"
         stroke-width="0.5"
         id="path17" />
      <path
         d="m 257.16777,456.25616 a 1.065375,1.0227439 0 1 1 -2.13075,0 1.065375,1.0227439 0 1 1 2.13075,0 z"
         id="path18"
         style="stroke-width:1.9091" />
      <path
         d="m 268.95371,456.47859 a 1.0653733,1.0227423 0 1 1 -2.13074,0 1.0653733,1.0227423 0 1 1 2.13074,0 z"
         id="path19"
         style="stroke-width:1.9091" />
    </g>
    <g
       transform="matrix(9.6590051,0,0,9.6590051,-1813.4446,-4130.3035)"
       id="g24"
       inkscape:export-filename="ghost4.png"
       inkscape:export-xdpi="96"
       inkscape:export-ydpi="96">
      <path
         d="m 262.95,457.76 c 0,1.7065 0.27875,14.761 -0.34728,16.241 -0.62603,1.48 -3.0944,-3.6615 -4.2135,-2.5424 -1.1191,1.1191 -1.5141,2.1589 -2.9934,2.7849 -1.4793,0.626 -3.1054,-2.867 -4.812,-2.867 -1.7066,0 -3.3327,3.493 -4.812,2.867 -1.4793,-0.626 -1.7403,-1.1301 -2.8594,-2.2492 -1.1191,-1.1191 -3.8107,3.5306 -4.4367,2.0513 -0.626,-1.4793 -0.25799,-14.579 -0.25799,-16.285 0,-6.8261 5.54,-12.366 12.366,-12.366 6.826,0 12.366,5.54 12.366,12.366 z"
         fill="#ff0000"
         stroke="#000000"
         stroke-width="0.66942"
         id="path20"
         style="fill:#0000ff"
         transform="translate(10.357,-0.21429)" />
      <path
         transform="translate(8.4375,-2.4018)"
         d="m 250.98,458.3 a 3.37055,3.4821517 0 1 1 -6.7411,0 3.37055,3.4821517 0 1 1 6.7411,0 z"
         fill="#ffffff"
         stroke="#000000"
         stroke-width="0.5"
         id="path21" />
      <path
         transform="translate(20.491,-2.1339)"
         d="m 250.98,458.3 a 3.37055,3.4821517 0 1 1 -6.7411,0 3.37055,3.4821517 0 1 1 6.7411,0 z"
         fill="#ffffff"
         stroke="#000000"
         stroke-width="0.5"
         id="path22" />
      <path
         d="m 257.16777,456.25616 a 1.065375,1.0227439 0 1 1 -2.13075,0 1.065375,1.0227439 0 1 1 2.13075,0 z"
         id="path23"
         style="stroke-width:1.9091" />
      <path
         d="m 268.95371,456.47859 a 1.0653733,1.0227423 0 1 1 -2.13074,0 1.0653733,1.0227423 0 1 1 2.13074,0 z"
         id="path24"
         style="stroke-width:1.9091" />
    </g>
    <g
       transform="matrix(9.6590051,0,0,9.6590051,-1798.9977,-3730.6068)"
       id="g29"
       inkscape:export-filename="ghostGri.png"
       inkscape:export-xdpi="96"
       inkscape:export-ydpi="96">
      <path
         d="m 262.95,457.76 c 0,1.7065 0.27875,14.761 -0.34728,16.241 -0.62603,1.48 -3.0944,-3.6615 -4.2135,-2.5424 -1.1191,1.1191 -1.5141,2.1589 -2.9934,2.7849 -1.4793,0.626 -3.1054,-2.867 -4.812,-2.867 -1.7066,0 -3.3327,3.493 -4.812,2.867 -1.4793,-0.626 -1.7403,-1.1301 -2.8594,-2.2492 -1.1191,-1.1191 -3.8107,3.5306 -4.4367,2.0513 -0.626,-1.4793 -0.25799,-14.579 -0.25799,-16.285 0,-6.8261 5.54,-12.366 12.366,-12.366 6.826,0 12.366,5.54 12.366,12.366 z"
         fill="#ff0000"
         stroke="#000000"
         stroke-width="0.66942"
         id="path25"
         style="fill:#e6e6e6"
         transform="translate(10.357,-0.21429)" />
      <path
         transform="translate(8.4375,-2.4018)"
         d="m 250.98,458.3 a 3.37055,3.4821517 0 1 1 -6.7411,0 3.37055,3.4821517 0 1 1 6.7411,0 z"
         fill="#ffffff"
         stroke="#000000"
         stroke-width="0.5"
         id="path26" />
      <path
         transform="translate(20.491,-2.1339)"
         d="m 250.98,458.3 a 3.37055,3.4821517 0 1 1 -6.7411,0 3.37055,3.4821517 0 1 1 6.7411,0 z"
         fill="#ffffff"
         stroke="#000000"
         stroke-width="0.5"
         id="path27" />
      <path
         d="m 257.16777,456.25616 a 1.065375,1.0227439 0 1 1 -2.13075,0 1.065375,1.0227439 0 1 1 2.13075,0 z"
         id="path28"
         style="stroke-width:1.9091" />
      <path
         d="m 268.95371,456.47859 a 1.0653733,1.0227423 0 1 1 -2.13074,0 1.0653733,1.0227423 0 1 1 2.13074,0 z"
         id="path29"
         style="stroke-width:1.9091" />
    </g>
  </g>
</svg>
